<svg width="87" height="135" viewBox="0 0 87 135" fill="none" xmlns="http://www.w3.org/2000/svg">
<path id="Vector" d="M8.55965 4.25984L7.75866 6.16809L6.92238 9.10748L8.83941 12.3321L6.39432 16.4179L6.16527 20.0484L12.1996 23.6158L12.1046 26.636L15.0482 31.253L20.1864 34.5628L16.3943 45.2541L11.6797 51.2973L13.6103 54.6841L11.2393 59.0856L4.72476 61.8623L1.58463 69.9409L5.05533 72.3363L0.866532 77.075L3.52331 78.1729L7.33871 81.9441L6.36299 85.023L9.22042 87.2306L12.1169 92.8789L11.6171 96.4637L14.0344 102.345L11.9961 107.067L11.4422 112.105L13.9169 115.794L10.7335 120.067L9.91187 123.258L6.68005 126.371L7.84176 130.35L2.02092 134.191L86.4163 133.232L80.4927 129.062L76.3039 126.561L76.9676 122.918L80.032 120.586L79.5804 116.006L80.7068 111.708L82.9305 107.787L77.6354 105.152L77.8816 99.923L76.7498 95.472L78.8843 93.0129L77.6853 88.8549L80.1235 86.2301L79.2714 82.6119C79.2714 82.6119 84.0833 78.9212 84.2 76.7854C84.3168 74.6496 81.4254 70.4864 81.4254 70.4864L78.1052 62.7166L74.844 60.1484L75.6943 52.2337L77.5301 47.2783L75.7359 43.4841L77.2823 37.8827L73.3387 34.2023L76.3923 30.9212L76.881 26.3544L81.1683 24.0738L81.9273 19.504L79.4654 15.9041L80.3452 10.5943L77.9421 5.96304L81.1374 2.73713L84.9023 -0.000166157L0.50695 0.958853L8.55965 4.25984Z" fill="#890B0B"/>
</svg>
